<?xml version="1.0" standalone="no"?>
<!DOCTYPE svg PUBLIC "-//W3C//DTD SVG 20010904//EN"
 "http://www.w3.org/TR/2001/REC-SVG-20010904/DTD/svg10.dtd">
<svg version="1.0" xmlns="http://www.w3.org/2000/svg"
 width="988.000000pt" height="988.000000pt" viewBox="0 0 988.000000 988.000000"
 preserveAspectRatio="xMidYMid meet">
<metadata>
Created by potrace 1.11, written by Peter Selinger 2001-2013
</metadata>
<g transform="translate(0.000000,988.000000) scale(0.100000,-0.100000)"
fill="#000000" stroke="none">
<path d="M4852 9674 c-51 -29 -97 -54 -102 -54 -4 0 -10 -3 -12 -8 -4 -10
-165 -102 -178 -102 -5 0 -10 -3 -10 -7 0 -5 -26 -21 -58 -38 -31 -16 -59 -32
-62 -36 -4 -4 -281 -166 -378 -221 -18 -10 -43 -25 -56 -33 l-22 -15 1 -560
c0 -307 3 -561 5 -563 22 -16 184 -107 191 -107 5 0 9 -4 9 -8 0 -4 15 -15 33
-23 24 -12 630 -364 707 -411 18 -11 42 -2 121 44 31 18 109 64 175 101 65 37
126 72 134 77 8 6 141 82 295 170 l279 159 1 186 c0 102 -3 185 -6 185 -4 0
-3 16 1 34 4 19 6 37 3 40 -3 2 -6 158 -7 346 l-2 342 -105 60 c-57 33 -129
74 -159 91 -30 17 -131 75 -223 129 -93 54 -170 98 -172 98 -1 0 -33 18 -70
41 -37 22 -84 50 -104 61 -20 11 -59 33 -86 48 l-51 29 -92 -55z m185 -563
c44 -26 149 -87 232 -135 83 -49 154 -93 158 -99 4 -7 8 -136 9 -289 l1 -276
-106 -58 c-58 -31 -135 -73 -171 -92 -36 -19 -97 -52 -136 -73 -39 -22 -77
-39 -84 -39 -14 0 -402 229 -411 243 -3 5 -8 7 -10 6 -2 -2 -13 3 -25 11 -19
14 -20 25 -23 295 l-2 280 161 95 c89 52 194 114 233 137 40 23 77 42 82 42 6
1 47 -21 92 -48z"/>
<path d="M3365 7760 c-55 -33 -108 -64 -117 -70 -10 -5 -111 -64 -225 -131
-222 -130 -218 -128 -401 -234 l-121 -70 3 -555 c4 -627 3 -580 16 -580 6 0
34 -15 63 -33 29 -18 59 -36 67 -40 8 -4 33 -18 55 -32 22 -14 55 -32 73 -42
17 -9 32 -20 32 -25 0 -4 6 -8 14 -8 8 0 54 -25 103 -55 50 -30 95 -55 101
-55 7 0 12 -4 12 -10 0 -5 4 -10 9 -10 4 0 53 -27 109 -60 55 -33 105 -60 111
-60 6 0 11 -4 11 -9 0 -5 8 -11 18 -14 17 -6 73 -37 82 -47 3 -3 26 -16 52
-30 44 -23 48 -23 66 -7 10 9 22 17 25 17 4 0 36 18 72 40 36 22 65 36 65 32
0 -4 4 -2 8 4 4 6 27 22 52 36 25 14 73 42 107 62 34 20 66 36 72 36 6 0 11 4
11 10 0 5 11 12 25 16 14 3 25 10 25 15 0 5 4 9 9 9 8 0 154 80 201 110 8 5
67 38 130 74 63 36 123 71 133 78 17 13 18 31 17 218 -4 625 -8 921 -11 925
-4 3 -271 158 -369 213 -25 14 -74 42 -109 64 -34 21 -66 38 -70 38 -3 0 -22
11 -41 24 -19 13 -66 40 -105 61 -38 21 -77 43 -85 49 -24 18 -184 106 -191
106 -2 -1 -49 -27 -104 -60z m153 -528 c15 -10 34 -22 42 -25 8 -4 29 -15 45
-26 17 -10 46 -27 65 -38 190 -111 286 -167 289 -169 2 -2 5 -130 5 -285 l2
-281 -39 -25 c-21 -13 -46 -27 -55 -30 -9 -4 -34 -17 -54 -30 -21 -13 -38 -20
-38 -17 0 4 -8 0 -17 -8 -10 -8 -38 -25 -63 -37 -70 -36 -214 -113 -225 -121
-5 -4 -36 10 -68 31 -32 21 -60 39 -62 39 -6 0 -147 85 -212 126 -28 19 -54
34 -58 34 -3 0 -21 10 -39 23 l-33 22 -1 103 c-1 57 -4 107 -7 112 -3 5 -1 11
5 15 6 4 8 10 5 15 -3 5 -6 77 -7 162 l-1 153 59 37 c32 21 68 42 79 47 11 6
88 50 170 100 83 49 158 90 168 90 11 1 31 -7 45 -17z"/>
<path d="M6395 7812 c-4 -4 -10 -7 -13 -7 -6 -1 -33 -16 -107 -62 -11 -7 -42
-25 -70 -41 -27 -16 -66 -38 -85 -49 -19 -11 -152 -89 -295 -173 -143 -84
-276 -161 -295 -173 -19 -11 -47 -27 -62 -34 -16 -8 -28 -18 -29 -21 -5 -50
-2 -232 4 -232 5 0 5 -5 1 -11 -10 -16 -11 -69 -2 -96 4 -13 4 -23 0 -23 -8 0
-7 -173 2 -195 3 -8 1 -17 -3 -20 -5 -3 -5 -21 -1 -40 5 -21 4 -35 -2 -35 -5
0 -6 -4 -3 -10 6 -9 9 -94 5 -115 -1 -5 -2 -14 -1 -19 7 -32 5 -88 -1 -92 -5
-3 -5 -10 -2 -16 3 -5 6 -57 7 -114 l0 -104 68 -40 c37 -22 72 -40 78 -40 6 0
11 -3 11 -7 0 -5 23 -19 50 -32 28 -14 50 -29 50 -33 0 -4 4 -8 10 -8 5 0 86
-45 179 -100 93 -55 174 -100 180 -100 5 0 11 -3 13 -7 4 -10 57 -42 81 -50 9
-3 17 -9 17 -14 0 -5 4 -9 10 -9 5 0 56 -27 112 -61 l103 -61 30 17 c17 9 55
31 85 48 30 16 72 41 92 54 21 12 42 23 47 23 5 0 16 6 23 13 7 7 65 42 128
77 63 35 117 66 120 70 3 3 16 11 30 17 14 7 48 26 75 42 28 16 61 36 75 44
62 34 127 72 155 88 17 10 51 30 77 45 l47 26 -4 367 c-2 201 -4 456 -5 567
l-1 200 -55 30 c-29 16 -54 32 -54 37 0 4 -8 7 -18 7 -10 0 -22 4 -27 9 -16
15 -306 181 -316 181 -5 0 -9 5 -9 10 0 6 -4 10 -8 10 -7 0 -69 34 -235 129
-23 13 -85 49 -137 80 -98 57 -114 64 -125 53z m98 -603 c79 -45 81 -47 247
-145 63 -37 125 -72 137 -78 23 -12 22 17 25 -459 1 -65 -3 -122 -8 -126 -5
-5 -58 -34 -119 -67 -60 -32 -146 -77 -190 -101 -44 -24 -103 -55 -131 -69
l-51 -27 -129 76 c-71 42 -134 80 -139 85 -6 5 -15 11 -21 13 -5 2 -47 26 -92
53 -68 41 -82 53 -83 75 0 14 -1 142 -3 283 l-1 257 230 135 c126 75 236 136
243 136 7 0 45 -19 85 -41z"/>
<path d="M4861 5855 c-40 -25 -76 -45 -80 -45 -4 0 -16 -7 -26 -15 -17 -13
-662 -392 -697 -409 -7 -3 -26 -14 -43 -24 l-30 -19 0 -557 c0 -307 2 -561 5
-565 6 -10 265 -165 570 -341 8 -5 40 -23 70 -41 30 -17 69 -40 85 -49 17 -10
77 -45 135 -78 87 -51 107 -59 120 -48 8 7 96 59 195 115 99 56 187 106 195
111 46 28 172 100 176 100 2 0 33 18 69 40 36 22 67 40 69 40 3 0 107 60 156
90 8 5 34 19 58 31 l42 23 -4 555 c-3 306 -5 559 -5 562 -1 10 -38 49 -46 49
-7 0 -193 106 -620 354 -104 60 -203 117 -218 125 -16 9 -38 22 -50 28 -34 19
-46 16 -126 -32z m225 -590 c71 -41 134 -79 141 -85 7 -5 15 -10 18 -10 3 0
33 -17 68 -37 34 -21 75 -45 91 -53 16 -8 31 -22 35 -32 3 -9 6 -139 6 -288
l0 -271 -95 -51 c-52 -28 -122 -64 -155 -82 -33 -17 -62 -33 -65 -36 -3 -3
-46 -26 -95 -51 l-90 -46 -30 18 c-16 10 -41 24 -55 32 -14 8 -101 60 -193
115 -93 56 -172 102 -178 102 -5 0 -9 6 -10 13 -4 100 -2 207 3 207 4 0 5 6 3
13 -11 26 -10 346 0 349 8 2 216 122 275 158 63 40 186 110 191 110 4 0 64
-34 135 -75z"/>
<path d="M3429 3568 c-76 -127 -92 -154 -116 -200 -8 -15 -18 -30 -24 -33 -17
-11 -10 -21 29 -42 59 -32 123 -68 242 -138 61 -36 115 -65 121 -65 5 0 9 -4
9 -10 0 -5 4 -10 9 -10 6 0 81 -41 168 -91 87 -51 174 -101 193 -112 101 -56
127 -72 143 -85 9 -8 17 -12 17 -7 0 4 7 2 15 -5 22 -18 167 -100 177 -100 4
0 8 -4 8 -10 0 -5 4 -10 9 -10 11 0 170 -90 176 -100 2 -4 7 -463 10 -1021 4
-558 7 -1093 8 -1189 l2 -175 35 -2 c19 -2 49 -3 65 -2 17 0 35 0 40 0 6 0
128 -2 272 -5 l262 -4 1 627 c1 1873 -1 1765 40 1784 8 4 31 17 50 28 29 18
238 138 344 199 17 9 72 41 121 69 50 28 97 55 105 61 8 5 42 25 75 43 49 28
304 176 490 284 22 12 54 30 72 39 l32 17 -23 41 c-13 23 -54 95 -93 161 -75
129 -98 169 -99 172 -1 6 -64 -22 -64 -29 0 -4 -4 -8 -9 -8 -5 0 -44 -20 -85
-45 -42 -25 -79 -45 -82 -45 -3 0 -17 -8 -32 -19 -23 -16 -263 -156 -456 -266
-29 -16 -91 -52 -139 -80 -48 -27 -100 -57 -115 -65 -15 -8 -51 -30 -80 -48
-29 -17 -57 -32 -62 -32 -6 0 -10 -4 -10 -8 0 -4 -12 -13 -27 -19 -29 -13 -91
-47 -133 -75 -22 -15 -67 -23 -95 -18 -5 1 -50 1 -100 1 -79 -1 -94 2 -127 24
-21 14 -40 25 -44 25 -3 0 -18 8 -32 18 -15 11 -52 32 -82 49 -30 17 -80 45
-110 63 -30 18 -71 42 -90 53 -150 84 -366 213 -368 219 -2 4 -10 8 -18 8 -8
0 -27 9 -42 19 -32 23 -201 121 -207 121 -3 0 -29 16 -59 35 -30 19 -58 35
-61 35 -4 0 -25 13 -48 29 -23 15 -52 31 -64 35 -11 4 -27 13 -33 21 -7 8 -18
15 -25 15 -7 0 -46 -55 -86 -122z"/>
</g>
</svg>
